<svg xmlns="http://www.w3.org/2000/svg" viewBox="0 0 1600 900">
<defs>
  <linearGradient id="bg" x1="0" y1="0" x2="1" y2="1">
    <stop stop-color="#050b14"/><stop offset=".55" stop-color="#0a1830"/><stop offset="1" stop-color="#06131d"/>
  </linearGradient>
  <radialGradient id="glow"><stop stop-color="#f4c95d" stop-opacity=".55"/><stop offset="1" stop-color="#f4c95d" stop-opacity="0"/></radialGradient>
  <filter id="blur"><feGaussianBlur stdDeviation="18"/></filter>
</defs>
<rect width="1600" height="900" fill="url(#bg)"/>
<circle cx="1250" cy="200" r="360" fill="url(#glow)" filter="url(#blur)"/>
<g opacity=".18" stroke="#f4c95d" fill="none">
  <path d="M0 730 C320 620 520 820 820 700 S1320 520 1600 670"/>
  <path d="M0 790 C300 660 540 850 850 730 S1300 590 1600 720"/>
</g>
<g transform="translate(850 120)">
<circle cx="350" cy="340" r="260" fill="none" stroke="#f4c95d" stroke-width="3" opacity=".35"/>
<circle cx="350" cy="340" r="175" fill="none" stroke="#f4c95d" stroke-width="3" opacity=".55"/>
<path d="M350 340L535 190" stroke="#f4c95d" stroke-width="10"/>
<circle cx="350" cy="340" r="22" fill="#f4c95d"/>
<g fill="#f4c95d"><circle cx="250" cy="210" r="12"/><circle cx="505" cy="360" r="10"/><circle cx="290" cy="510" r="13"/></g>
<text x="350" y="680" text-anchor="middle" font-family="Arial" font-size="34" fill="#f4c95d">PRÓXIMAMENTE</text>
</g>
<g font-family="Arial,Helvetica,sans-serif">
  <text x="100" y="115" font-size="32" letter-spacing="6" fill="#f4c95d">MVV SOLUCIONES INTEGRALES</text>
  <text x="100" y="690" font-size="76" font-weight="700" fill="white">C11 Seguridad Inteligente</text>
  <text x="100" y="750" font-size="31" fill="#b9c8da">Ecosistema integral en desarrollo.</text>
</g>
</svg>